HIERARCHY
ROOT Hips
{
	OFFSET -0.179506 -22.333345 2.821913
	CHANNELS 6 Xposition Yposition Zposition Zrotation Yrotation Xrotation 
	JOINT LeftUpLeg
	{
		OFFSET 6.951974 -9.140623 -0.681533
		CHANNELS 3 Zrotation Yrotation Xrotation
		JOINT LeftLeg
		{
			OFFSET 3.427654 -37.519855 -0.449580
			CHANNELS 3 Zrotation Yrotation Xrotation
			JOINT LeftFoot
			{
				OFFSET -1.359570 -39.796059 -4.369333
				CHANNELS 3 Zrotation Yrotation Xrotation
				JOINT LeftToe
				{
					OFFSET 2.635814 -5.579078 11.928840
					CHANNELS 3 Zrotation Yrotation Xrotation
					End Site
					{
						OFFSET 0.000000 0.000000 0.000000
					}
				}
			}
		}
	}
	JOINT RightUpLeg
	{
		OFFSET -6.767048 -9.052170 -0.431982
		CHANNELS 3 Zrotation Yrotation Xrotation
		JOINT RightLeg
		{
			OFFSET -3.829005 -38.256897 -0.885003
			CHANNELS 3 Zrotation Yrotation Xrotation
			JOINT RightFoot
			{
				OFFSET 1.577377 -39.841461 -4.231180
				CHANNELS 3 Zrotation Yrotation Xrotation
				JOINT RightToe
				{
					OFFSET -2.537174 -4.814398 12.334795
					CHANNELS 3 Zrotation Yrotation Xrotation
					End Site
					{
						OFFSET 0.000000 0.000000 0.000000
					}
				}
			}
		}
	}
	JOINT Spine
	{
		OFFSET -0.253288 10.896323 -2.669631
		CHANNELS 3 Zrotation Yrotation Xrotation
		JOINT Spine1
		{
			OFFSET 0.548704 13.518043 0.109247
			CHANNELS 3 Zrotation Yrotation Xrotation
			JOINT Spine2
			{
				OFFSET 0.145701 5.292222 2.542457
				CHANNELS 3 Zrotation Yrotation Xrotation
				JOINT Neck
				{
					OFFSET -0.277840 21.387037 -4.285703
					CHANNELS 3 Zrotation Yrotation Xrotation
					JOINT Head
					{
						OFFSET 0.515184 6.496960 5.134897
						CHANNELS 3 Zrotation Yrotation Xrotation
						End Site
						{
							OFFSET 0.000000 0.000000 0.000000
						}
					}
				}
				JOINT LeftShoulder
				{
					OFFSET 7.884473 12.174932 -3.408961
					CHANNELS 3 Zrotation Yrotation Xrotation
					JOINT LeftArm
					{
						OFFSET 9.097692 3.046888 -0.886815
						CHANNELS 3 Zrotation Yrotation Xrotation
						JOINT LeftForeArm
						{
							OFFSET 25.961220 -1.277207 -2.745643
							CHANNELS 3 Zrotation Yrotation Xrotation
							JOINT LeftHand
							{
								OFFSET 24.923361 0.898606 -0.117091
								CHANNELS 3 Zrotation Yrotation Xrotation
								End Site
								{
									OFFSET 0.000000 0.000000 0.000000
								}
							}
						}
					}
				}
				JOINT RightShoulder
				{
					OFFSET -8.175920 11.883285 -3.861528
					CHANNELS 3 Zrotation Yrotation Xrotation
					JOINT RightArm
					{
						OFFSET -9.601238 3.255117 -0.914307
						CHANNELS 3 Zrotation Yrotation Xrotation
						JOINT RightForeArm
						{
							OFFSET -25.374195 -1.332924 -2.140099
							CHANNELS 3 Zrotation Yrotation Xrotation
							JOINT RightHand
							{
								OFFSET -25.529810 0.777228 -0.555919
								CHANNELS 3 Zrotation Yrotation Xrotation
								End Site
								{
									OFFSET 0.000000 0.000000 0.000000
								}
							}
						}
					}
				}
			}
		}
	}
}
MOTION
Frames: 18
Frame Time: 0.033333
32.796562 113.963013 89.863327 -176.304131 8.963259 84.173725 32.944530 9.624691 22.448419 -1.099231 -2.035518 12.698397 -12.089442 0.594170 -20.905578 nan nan nan -1.381960 10.866560 -29.567753 3.217390 5.299748 30.200743 11.100519 16.591160 -4.659844 nan nan nan -13.129532 -15.507249 16.831133 4.756233 -13.154824 2.193001 4.284198 -8.738715 -8.535535 -1.633243 -5.298614 16.538978 5.833045 -3.415259 18.563498 -17.958646 -17.497172 17.339466 -61.363652 -19.181951 4.001684 84.132857 -63.348727 -83.292502 9.009981 -26.455994 -59.973822 8.066036 19.525430 -2.467384 69.315736 29.604592 22.936772 -171.449482 65.519301 -151.294583 19.489471 26.634622 -30.634441 
32.598797 113.982864 89.539444 -176.246404 9.158343 84.680824 33.506563 10.498770 22.080329 -1.106995 -0.370298 11.719712 -11.822246 0.934305 -21.000460 nan nan nan -1.671644 10.585969 -29.504906 3.127649 4.681503 29.281883 11.285899 16.972899 -5.492919 nan nan nan -13.128389 -16.252279 17.176046 5.533774 -13.725727 0.890131 4.437543 -9.201620 -7.578117 -1.264360 -6.076709 16.437956 6.695984 -4.215224 19.024368 -17.622652 -17.564546 14.221558 -57.525692 -25.823376 3.877599 86.637542 -62.507589 -88.904595 9.788575 -27.581202 -58.679706 8.632124 16.946334 -2.745861 68.365405 26.198684 23.179824 -174.407182 64.682697 -156.368725 17.048354 28.254793 -35.555610 
32.339226 113.972076 89.172386 -176.029910 9.240302 85.225640 33.711381 11.309659 21.404602 -1.058942 0.994591 11.256299 -11.415382 1.590272 -21.497154 nan nan nan -2.061529 9.999441 -29.507064 3.121933 4.274681 28.510151 11.602764 17.329899 -6.278580 nan nan nan -12.886533 -16.644997 17.523479 6.116059 -13.832320 -0.553942 4.362940 -9.641237 -6.306387 -0.911502 -7.288092 15.907600 7.871681 -5.356952 19.546052 -17.434735 -17.970285 10.529231 -53.930148 -33.010906 4.055323 88.036033 -61.149232 -93.150850 9.223823 -27.906612 -60.166902 9.439703 14.033906 -3.255932 66.850245 22.191442 23.194578 -176.424458 64.019725 -160.726985 15.091396 29.895685 -41.564883 
32.013523 113.974548 88.764595 -175.831333 9.116242 85.687469 33.560163 12.255239 20.622174 -0.897116 1.861939 11.518753 -10.786493 2.057803 -22.308780 nan nan nan -2.508434 9.098434 -29.596900 3.202162 4.235836 28.009998 11.862278 17.596361 -7.198053 nan nan nan -12.277232 -16.526522 17.736475 6.204849 -13.516321 -1.856653 3.984906 -10.239165 -5.331823 -0.732302 -8.138272 14.705697 9.268047 -6.015741 20.885322 -18.681434 -19.397926 7.617619 -49.206945 -40.031438 3.738248 90.023200 -59.912015 -95.856732 9.191580 -28.200391 -59.475320 10.911815 11.387740 -3.307354 64.557351 17.536231 22.568848 -177.969954 63.710343 -164.404683 12.867967 31.736077 -48.748235 
31.659101 113.982323 88.329300 -175.593988 8.860255 86.176021 33.075124 13.059472 19.553294 -0.546534 2.534313 12.486430 -10.220903 2.229751 -23.295931 nan nan nan -3.045983 8.078933 -29.993564 3.277836 4.219521 27.817463 12.295096 17.926452 -7.846395 nan nan nan -11.527176 -16.371459 18.041532 6.216203 -13.022131 -3.599624 3.452928 -10.665113 -3.991443 -0.521841 -9.563088 13.646401 10.409276 -7.662454 21.699158 -19.511418 -20.142436 4.397106 -47.065294 -46.498937 4.414602 91.568762 -59.870197 -95.228553 10.064603 -28.336820 -59.132630 12.397187 8.658712 -3.171593 62.320322 12.909063 21.849274 -179.536957 64.049438 -167.275958 9.924155 33.166564 -56.362838 
31.322952 113.989845 87.914223 -175.579996 8.534211 86.637906 32.317156 13.709116 18.426240 -0.257722 3.063136 13.894462 -8.925650 2.747701 -24.785814 nan nan nan -3.427335 7.144462 -30.834476 3.352638 4.593171 28.265669 12.701009 18.295365 -8.179470 nan nan nan -10.863528 -16.326792 18.481317 6.416637 -12.569277 -5.684888 3.167792 -11.041245 -2.224748 -1.068812 -11.396315 12.949188 11.347573 -9.523547 21.700875 -19.094839 -19.947240 2.146602 -47.628796 -52.437633 4.383036 96.061227 -60.477203 -96.850908 7.474944 -28.769575 -59.435106 12.844542 6.283662 -2.609708 61.170736 9.001797 21.242149 179.287774 65.041346 -169.544389 7.352630 33.527769 -61.835400 
31.031229 114.045441 87.544258 -176.167684 8.119939 86.984197 31.275003 14.339192 17.710058 0.400626 4.123951 15.284752 -8.069489 3.120205 -26.156214 nan nan nan -3.641783 6.637801 -32.154425 3.347154 5.203581 29.562331 12.912834 18.855829 -8.311193 nan nan nan -10.622621 -16.017746 18.653272 6.972098 -12.386348 -6.957366 3.560168 -11.131725 -1.095865 -2.002863 -11.148653 11.695601 11.479958 -10.796157 21.633379 -14.944326 -20.333526 1.808260 -50.571849 -55.818914 4.791037 105.752301 -58.399203 -105.018600 8.568094 -30.187192 -60.902536 11.479255 4.614546 -1.594993 61.547004 5.544795 20.136631 177.933653 66.696779 -172.178730 5.875880 33.696611 -64.680763 
30.762245 114.166054 87.197250 -177.394879 7.671296 87.189544 29.885884 14.428206 17.641352 1.064462 5.496511 16.158749 -7.459621 3.931982 -27.327387 nan nan nan -3.906052 7.027970 -33.791599 3.268932 5.587660 31.415384 12.999703 19.393996 -8.373253 nan nan nan -10.696199 -15.791669 18.112497 7.600374 -12.348245 -6.567495 4.154955 -10.487611 -0.661725 -2.202113 -9.727051 10.121677 10.759633 -12.578814 21.584434 -9.510602 -20.788797 0.887140 -54.424967 -57.086716 7.180514 114.346096 -53.862807 -112.638301 8.740666 -31.956969 -60.520523 9.931513 3.185971 -0.833843 62.245268 2.525779 19.107881 176.737748 68.798264 -173.818579 5.756495 32.908069 -63.409526 
30.505959 114.301453 86.887077 -179.169606 7.307849 87.198281 28.434765 14.117414 18.203162 1.367706 6.654736 16.461153 -6.999252 5.619354 -28.344719 nan nan nan -4.105698 8.352941 -35.368516 3.246061 6.045244 33.293570 13.031932 19.384915 -8.485549 nan nan nan -10.720957 -15.900402 17.399262 8.186083 -12.061631 -5.563715 4.595653 -9.496435 -0.418137 -2.219682 -7.690021 8.493620 9.562265 -14.134390 21.546631 -4.283596 -20.201162 -0.254637 -58.390796 -57.341862 10.179928 121.031279 -49.179955 -116.812747 8.286628 -32.598204 -60.709741 8.708672 1.714237 -0.246837 62.964977 0.503667 18.391293 175.248922 71.470066 -174.512745 6.064036 32.174880 -62.711976 
30.283863 114.441620 86.600800 178.777104 7.037513 87.075664 27.077987 13.505188 19.185611 1.333888 7.944347 16.349302 -6.915391 7.503665 -29.246568 nan nan nan -4.307584 10.352222 -36.746352 3.133706 6.212108 34.976656 13.274632 19.264453 -8.738128 nan nan nan -10.416443 -16.168993 16.602364 8.505352 -11.289594 -4.490924 4.743101 -8.658187 -0.170813 -2.249482 -5.615864 7.087612 8.141786 -15.032167 21.691729 -0.467458 -18.314446 -1.208474 -62.472723 -57.338812 13.081843 126.109400 -46.296910 -118.713238 7.456867 -34.028061 -61.111185 8.066903 -0.169982 0.149953 63.486277 -0.507138 18.001134 171.998005 74.712253 -176.596651 6.739660 31.926291 -62.492644 
30.082006 114.602600 86.359131 176.813211 6.838675 86.763556 26.017783 12.977948 20.460677 1.085695 8.983089 16.029012 -6.879016 9.215876 -29.873496 nan nan nan -4.376168 12.222399 -37.740023 3.111503 6.386483 36.488334 13.347387 19.071047 -9.243570 nan nan nan -9.700467 -16.584116 15.934315 8.405454 -10.138375 -3.801175 4.629103 -8.237992 0.267904 -2.835916 -4.449890 6.606787 7.135018 -14.435409 21.486295 1.166847 -15.195944 -2.009282 -66.180544 -57.118906 15.198251 130.173140 -46.160747 -119.986345 7.396081 -34.192322 -61.021776 7.796659 -2.065077 0.579256 63.973980 -0.899694 17.661850 165.032506 78.438293 177.098214 7.346732 31.778325 -61.536313 
29.878864 114.760780 86.169388 175.231797 6.603750 86.404656 25.112227 12.528972 21.661583 0.822046 9.963107 15.748646 -6.894706 10.417193 -30.328265 nan nan nan -4.541985 13.709515 -38.431855 3.110523 6.393395 37.736841 13.093784 19.079107 -9.889172 nan nan nan -8.813213 -16.931155 15.390889 8.075032 -9.067660 -3.230292 4.458740 -8.156083 0.564613 -3.422496 -3.662586 6.800725 6.208750 -13.272783 21.426324 1.573021 -12.064769 -2.683148 -68.724587 -56.358030 16.313956 133.667787 -46.857197 -121.231537 6.086696 -35.057340 -59.700242 7.836582 -3.566219 1.323962 64.326380 -0.911242 17.131574 150.879098 82.135759 163.069736 8.424980 31.969186 -60.729306 
29.656189 114.872948 86.052986 174.359573 6.273679 86.158010 24.301342 12.122866 22.462623 0.550264 10.711511 15.491415 -6.788836 11.229194 -30.675509 nan nan nan -4.885734 14.621069 -38.881784 3.095230 6.409027 38.629317 12.807106 19.031550 -10.421184 nan nan nan -8.018860 -17.169513 14.910929 7.735268 -8.256114 -2.653761 4.320539 -8.052498 0.911582 -3.680197 -3.112889 6.937415 5.620353 -12.035707 20.988900 1.080787 -9.388466 -3.379976 -70.487114 -55.525051 17.354073 136.403209 -47.887586 -122.548325 3.849036 -35.469338 -56.952037 8.282159 -4.923686 1.884657 64.272736 -0.849474 16.647005 120.269188 84.877910 131.755802 10.119406 32.222858 -59.840059 
29.365730 115.005928 86.027916 174.556142 6.071740 85.756087 24.138091 12.006742 23.031513 0.526186 10.771088 15.424909 -6.920575 10.939272 -30.953959 nan nan nan -5.120447 14.726438 -38.604571 2.684772 6.075130 39.174185 12.337461 19.350119 -10.842093 nan nan nan -7.080806 -17.462925 14.820407 7.411503 -7.836067 -1.678630 4.594794 -8.025635 0.532498 -3.919593 -3.196889 8.183189 4.683978 -10.295433 18.995829 -0.266590 -7.846046 -3.656031 -70.598718 -54.201236 15.851378 138.130643 -47.786252 -120.864218 -5.821060 -36.005960 -50.442883 8.300083 -5.441153 3.272019 64.589666 -0.934429 14.818744 75.774130 85.140978 87.259963 13.120018 32.871576 -59.028848 
29.046928 115.161964 86.072144 175.500002 5.676243 85.220996 24.007156 11.603883 23.652647 -0.004505 9.799653 14.984359 -6.504882 11.279292 -31.017703 nan nan nan -5.457903 14.132526 -37.831908 2.842711 6.502494 39.665361 11.794515 18.565968 -11.713453 nan nan nan -6.572187 -17.456369 15.035202 7.401753 -7.725914 -1.231461 4.681142 -7.695105 0.512121 -4.558843 -3.026558 8.272805 4.544002 -8.923167 18.823550 -1.326634 -7.233127 -3.681265 -71.825558 -53.373732 18.457998 139.831906 -50.141132 -124.657315 1.895483 -34.830929 -53.611560 8.712077 -5.525271 4.715633 64.698333 -1.579459 13.931251 43.132719 84.191642 52.149749 12.585484 32.160341 -59.444185 
28.753195 115.244316 86.113205 176.921560 5.085541 84.962556 24.039381 11.688237 23.738361 -0.442826 8.655023 14.820780 -6.294227 10.756155 -30.989634 nan nan nan -6.184478 13.307454 -37.344095 2.706276 6.515550 40.322566 11.217061 18.072766 -12.594196 nan nan nan -6.176267 -17.242939 14.861324 7.424806 -7.629797 -0.525501 4.643474 -7.387612 0.114109 -4.988314 -2.405353 8.226771 4.741634 -8.761243 19.134576 -2.227983 -7.738391 -3.222789 -71.906782 -52.406225 18.833995 140.111908 -51.734880 -124.322648 1.932684 -34.850181 -49.986213 9.694444 -5.113137 6.478713 64.810280 -2.749821 12.198656 21.757359 82.965518 29.700560 12.310369 31.560416 -59.160526 
28.480680 115.261894 86.152809 179.155435 4.218186 84.872384 23.972282 11.789359 23.166571 -0.873347 7.101428 14.986904 -6.110221 9.927895 -30.938639 nan nan nan -7.332307 11.821587 -36.867429 2.427303 6.307219 41.040962 10.874939 17.770515 -13.591849 nan nan nan -6.217505 -16.855978 14.713030 7.643446 -7.767756 -0.074110 4.846214 -7.184629 -0.262074 -5.358202 -2.406870 8.827667 4.853630 -8.648640 18.357039 -3.228814 -8.612805 -2.204897 -72.162825 -51.834363 19.288797 139.225525 -52.884258 -124.533173 2.143999 -34.714374 -53.003770 10.674545 -4.952254 8.030710 65.202979 -3.750763 10.760192 6.273760 81.498695 12.924519 11.323283 30.664135 -58.266196 
28.209652 115.296532 86.184662 -178.069919 3.213541 84.791806 23.851868 11.964853 22.183671 -1.167328 5.288734 15.547667 -5.928139 8.734255 -30.850133 nan nan nan -8.689852 9.894929 -36.174058 2.159559 6.147685 41.673141 10.661467 17.448423 -14.675700 nan nan nan -6.430050 -16.262580 14.557144 7.976901 -8.111871 0.268196 5.044345 -6.949465 -0.591988 -5.647678 -2.562243 9.002009 4.848365 -9.025966 17.973723 -4.337192 -10.066000 -1.154116 -72.179893 -51.306334 19.670840 138.494300 -54.311838 -124.087349 2.662847 -33.848440 -53.178037 11.858498 -4.813543 8.901750 65.608142 -5.087693 9.151923 -3.912375 80.122905 2.200480 12.587502 30.021054 -56.891319 
